<svg width="210" height="210" viewBox="0 0 210 210" fill="none" xmlns="http://www.w3.org/2000/svg">
<path d="M130.641 69.7308C128.156 69.7308 126.141 71.7455 126.141 74.2308C126.141 76.7161 128.156 78.7308 130.641 78.7308V69.7308ZM150.263 77.41L147.524 80.98L147.524 80.9801L150.263 77.41ZM153.103 80.2498L156.673 77.5105L156.673 77.5105L153.103 80.2498ZM56.8971 80.2498L60.4672 82.9893L60.4673 82.9892L56.8971 80.2498ZM59.737 77.41L62.4764 80.9801L62.4765 80.98L59.737 77.41ZM79.359 78.7308C81.8443 78.7308 83.859 76.7161 83.859 74.2308C83.859 71.7455 81.8443 69.7308 79.359 69.7308V78.7308ZM126.463 81.0302C127.386 83.3377 130.005 84.4601 132.312 83.5371C134.62 82.6142 135.742 79.9953 134.819 77.6878L126.463 81.0302ZM126.098 68.0022L130.277 66.331L130.277 66.3309L126.098 68.0022ZM117.393 55.049L115.396 59.0817L115.396 59.0818L117.393 55.049ZM92.6069 55.049L90.6103 51.0162L90.6103 51.0162L92.6069 55.049ZM83.9017 68.0022L88.0798 69.6735L88.0799 69.6734L83.9017 68.0022ZM75.1808 77.6877C74.2578 79.9952 75.3802 82.6141 77.6877 83.5371C79.9952 84.4601 82.6141 83.3378 83.5371 81.0302L75.1808 77.6877ZM104.999 69.7308C102.514 69.7308 100.499 71.7455 100.499 74.2308C100.499 76.7161 102.514 78.7308 104.999 78.7308V69.7308ZM105.045 78.7308C107.53 78.7308 109.545 76.7161 109.545 74.2308C109.545 71.7455 107.53 69.7308 105.045 69.7308V78.7308ZM130.641 78.7308C136.805 78.7308 140.294 78.7414 142.795 79.086C144.954 79.3836 146.109 79.8947 147.524 80.98L153.003 73.8399C150.274 71.746 147.632 70.6676 144.023 70.1703C140.757 69.7202 136.506 69.7308 130.641 69.7308V78.7308ZM147.524 80.9801C148.278 81.5592 148.954 82.2347 149.533 82.9892L156.673 77.5105C155.615 76.1316 154.381 74.8976 153.002 73.8398L147.524 80.9801ZM149.533 82.9892C150.421 84.1468 151.061 85.7662 151.413 88.8899C151.775 92.1043 151.782 96.3169 151.782 102.436H160.782C160.782 96.5262 160.789 91.7174 160.356 87.8818C159.914 83.9554 158.964 80.496 156.673 77.5105L149.533 82.9892ZM151.782 102.436V125.513H160.782V102.436H151.782ZM151.782 125.513C151.782 132.892 151.772 137.974 151.259 141.794C150.763 145.485 149.872 147.316 148.594 148.594L154.958 154.958C158.186 151.729 159.548 147.682 160.179 142.993C160.792 138.434 160.782 132.638 160.782 125.513H151.782ZM148.594 148.594C147.316 149.872 145.485 150.763 141.794 151.259C137.974 151.772 132.892 151.782 125.513 151.782V160.782C132.638 160.782 138.434 160.792 142.993 160.179C147.682 159.548 151.729 158.186 154.958 154.958L148.594 148.594ZM125.513 151.782H84.4872V160.782H125.513V151.782ZM84.4872 151.782C77.1076 151.782 72.0256 151.772 68.2057 151.259C64.5153 150.763 62.6836 149.872 61.406 148.594L55.042 154.958C58.2705 158.186 62.318 159.548 67.0064 160.179C71.5654 160.792 77.362 160.782 84.4872 160.782V151.782ZM61.406 148.594C60.1284 147.316 59.2372 145.485 58.7411 141.794C58.2275 137.974 58.2179 132.892 58.2179 125.513H49.2179C49.2179 132.638 49.2084 138.434 49.8213 142.993C50.4517 147.682 51.8135 151.729 55.042 154.958L61.406 148.594ZM58.2179 125.513V102.436H49.2179V125.513H58.2179ZM58.2179 102.436C58.2179 96.3169 58.2246 92.1044 58.587 88.89C58.9392 85.7662 59.5789 84.1469 60.4672 82.9893L53.327 77.5104C51.0362 80.4959 50.0863 83.9554 49.6437 87.8817C49.2113 91.7174 49.2179 96.5262 49.2179 102.436H58.2179ZM60.4673 82.9892C61.0463 82.2346 61.7218 81.5591 62.4764 80.9801L56.9976 73.8398C55.6189 74.8977 54.3849 76.1318 53.327 77.5105L60.4673 82.9892ZM62.4765 80.98C63.8909 79.8947 65.0461 79.3836 67.2052 79.086C69.7065 78.7414 73.1949 78.7308 79.359 78.7308V69.7308C73.4944 69.7308 69.2435 69.7202 65.9767 70.1703C62.3678 70.6676 59.7263 71.746 56.9976 73.8399L62.4765 80.98ZM134.819 77.6878L130.277 66.331L121.92 69.6734L126.463 81.0302L134.819 77.6878ZM130.277 66.3309C129.401 64.141 128.316 61.073 126.823 58.4179C125.255 55.6298 122.993 52.8 119.389 51.0161L115.396 59.0818C116.833 59.7931 117.944 60.99 118.978 62.8298C120.088 64.8026 120.836 66.9636 121.92 69.6735L130.277 66.3309ZM119.39 51.0162C117.355 50.0089 115.261 49.5934 112.996 49.4006C110.808 49.2142 108.159 49.2179 105 49.2179V58.2179C108.31 58.2179 110.514 58.2217 112.233 58.3681C113.875 58.508 114.742 58.758 115.396 59.0817L119.39 51.0162ZM105 49.2179C101.841 49.2179 99.1919 49.2142 97.0036 49.4006C94.7393 49.5934 92.6448 50.0089 90.6103 51.0162L94.6035 59.0818C95.2575 58.758 96.1247 58.508 97.7674 58.3681C99.4861 58.2217 101.69 58.2179 105 58.2179V49.2179ZM90.6103 51.0162C87.0071 52.8001 84.7451 55.6299 83.1771 58.418C81.6839 61.073 80.5995 64.141 79.7235 66.331L88.0799 69.6734C89.1638 66.9636 89.9121 64.8025 91.0216 62.8297C92.0563 60.9899 93.167 59.793 94.6035 59.0818L90.6103 51.0162ZM79.7236 66.3309L75.1808 77.6877L83.5371 81.0302L88.0798 69.6735L79.7236 66.3309ZM118.449 115.256C118.449 122.684 112.428 128.705 105 128.705V137.705C117.398 137.705 127.449 127.655 127.449 115.256H118.449ZM105 128.705C97.5725 128.705 91.5513 122.684 91.5513 115.256H82.5513C82.5513 127.655 92.6019 137.705 105 137.705V128.705ZM91.5513 115.256C91.5513 107.829 97.5725 101.808 105 101.808V92.8077C92.6019 92.8077 82.5513 102.858 82.5513 115.256H91.5513ZM105 101.808C112.428 101.808 118.449 107.829 118.449 115.256H127.449C127.449 102.858 117.398 92.8077 105 92.8077V101.808ZM104.999 78.7308H105.045V69.7308H104.999V78.7308ZM200.5 105C200.5 157.743 157.743 200.5 105 200.5V209.5C162.714 209.5 209.5 162.714 209.5 105H200.5ZM105 200.5C52.2568 200.5 9.5 157.743 9.5 105H0.5C0.5 162.714 47.2862 209.5 105 209.5V200.5ZM9.5 105C9.5 52.2568 52.2568 9.5 105 9.5V0.5C47.2862 0.5 0.5 47.2862 0.5 105H9.5ZM105 9.5C157.743 9.5 200.5 52.2568 200.5 105H209.5C209.5 47.2862 162.714 0.5 105 0.5V9.5Z" fill="#50B748"/>
</svg>
