<svg width="137" height="134" viewBox="0 0 137 134" fill="none" xmlns="http://www.w3.org/2000/svg">
<rect x="0.504883" y="0.384766" width="136.495" height="133.327" rx="5" fill="#D9D9D9"/>
<path d="M68.722 15.427C39.6057 15.427 15.9614 38.5225 15.9614 66.963C15.9614 95.4035 39.6057 118.499 68.722 118.499C97.8383 118.499 121.483 95.4035 121.483 66.963C121.483 38.5225 97.8383 15.427 68.722 15.427ZM68.722 19.1081C95.8033 19.1081 117.714 40.5103 117.714 66.963C117.714 93.4157 95.8033 114.818 68.722 114.818C41.6408 114.818 19.73 93.4157 19.73 66.963C19.73 40.5103 41.6408 19.1081 68.722 19.1081ZM64.3957 33.9431C63.95 33.9342 63.5061 34.0015 63.0842 34.1419C62.2129 34.4148 61.4861 35.011 61.0604 35.8021C58.9161 39.2219 58.5053 43.4331 59.7565 47.5082C61.0491 51.7157 64.0791 54.6459 67.3465 56.6374L67.4219 56.6816L67.4972 56.7257C68.4394 57.1822 69.3891 57.1343 70.2106 56.8693C70.6567 56.736 71.0707 56.5164 71.428 56.2236C71.7854 55.9308 72.0789 55.5707 72.2909 55.1649C73.9679 51.8887 74.8385 47.7217 73.5421 43.5031C72.2495 39.2918 69.2119 36.3653 65.9483 34.3738L65.873 34.3297L65.7938 34.2855C65.3596 34.0708 64.8821 33.9526 64.3957 33.9395V33.9431ZM64.2525 37.7421C66.8603 39.406 69.0009 41.5373 69.928 44.5596C70.8626 47.6002 70.2596 50.6776 69.0084 53.2471C66.4194 51.5869 64.2864 49.4592 63.3631 46.4517C62.3795 43.2417 62.7337 40.1827 64.2525 37.7421ZM83.0428 52.8642C79.0933 52.8642 74.9327 54.5097 71.914 57.4583C70.6629 58.6804 69.7245 60.0204 68.9896 61.4265C68.2754 60.104 67.3662 58.891 66.2913 57.8264C63.2726 54.8778 59.1121 53.236 55.1588 53.236C54.1789 53.236 53.1614 53.5452 52.3474 54.252C51.5371 54.9588 51.0095 56.0926 51.0095 57.2853C51.0095 61.1431 52.7582 64.9052 55.7128 67.7912C57.8835 69.9116 60.4989 71.4356 63.4497 72.0835V74.686C59.9525 71.8515 55.7618 70.5374 51.3902 70.5374C50.4103 70.5374 49.4003 70.8834 48.6918 71.5791C47.9945 72.2878 47.6101 73.2357 47.6216 74.2185C47.6216 78.7095 49.2797 83.5981 53.071 87.2939C55.8622 90.0714 59.5073 91.8801 63.4497 92.4438V94.4648C63.4497 95.9741 63.9962 97.4171 65.0363 98.4331C66.0765 99.4491 67.55 99.9865 69.1027 99.9865C70.6478 99.9865 72.1251 99.4491 73.1652 98.4331C74.2054 97.4171 74.7556 95.9777 74.7556 94.4648V92.3076C78.2604 91.645 81.5391 90.0621 84.3731 87.2939C88.1605 83.5981 89.83 78.7132 89.83 74.2185C89.83 73.2577 89.472 72.2712 88.7598 71.5791C88.0346 70.9002 87.0658 70.5262 86.0614 70.5374C81.9951 70.5374 78.0946 71.6896 74.7556 74.1228V72.0835C77.7064 71.4319 80.3181 69.9116 82.4888 67.7912C85.4471 64.9015 87.192 61.0916 87.192 56.9171C87.192 55.7539 86.6531 54.7968 85.9333 54.0937C85.5597 53.711 85.1115 53.4051 84.6151 53.1939C84.1187 52.9828 83.5841 52.8707 83.0428 52.8642ZM83.0428 56.5454C82.9787 56.5454 83.1407 56.5711 83.2689 56.6926C83.397 56.8214 83.4234 56.9797 83.4234 56.9171C83.4234 60.1087 82.1458 62.9174 79.8244 65.1887C78.2566 66.72 76.5645 67.7802 74.7179 68.3361C74.635 66.9593 74.1187 65.6599 73.1652 64.7285C72.8125 64.396 72.4127 64.1146 71.9781 63.8929C72.5823 62.4629 73.4655 61.1614 74.5785 60.0608C76.8359 57.8558 80.2088 56.5454 83.0428 56.5454ZM55.1588 56.9171C57.9928 56.9171 61.3657 58.224 63.6231 60.429C64.7198 61.4965 65.4923 62.6671 66.0991 63.9592C65.7147 64.1764 65.3529 64.4193 65.0363 64.7285C64.0829 65.6599 63.5666 66.9593 63.4837 68.3361C61.637 67.7802 59.9412 66.7163 58.3772 65.1887C56.0557 62.9211 54.7782 60.0535 54.7782 57.2853C54.7782 57.0092 54.8158 57.0349 54.8535 57.0055C54.944 56.9471 55.0503 56.9164 55.1588 56.9171ZM69.1027 66.8562C69.8112 66.8562 70.2219 67.0587 70.497 67.3311C70.7797 67.6035 70.987 68.0011 70.987 68.6931V94.4611C70.987 95.1605 70.7797 95.5581 70.497 95.8305C70.2219 96.1029 69.8112 96.3054 69.1027 96.3054C68.3866 96.3054 67.9834 96.1029 67.7045 95.8268C67.4256 95.5581 67.2146 95.1605 67.2146 94.4648V68.6968C67.2146 68.3471 67.2711 68.0747 67.3578 67.8538C67.4339 67.6574 67.5521 67.4792 67.7045 67.3311C67.7912 67.2428 67.9269 67.1839 68.0474 67.1139L69.1027 66.8562ZM51.3902 74.2185C55.498 74.2185 59.0706 75.4922 62.1156 78.4666L63.2462 79.5672C63.3097 79.6296 63.3778 79.6874 63.4497 79.7402V88.7222C60.6233 88.2105 58.1021 87.0068 55.7354 84.6914C52.7356 81.7649 51.3902 77.8187 51.3902 74.2185ZM86.0614 74.2185C86.0614 77.8187 84.7047 81.7649 81.7087 84.6914C79.5493 86.8007 77.2768 87.997 74.7556 88.5823V79.0261L75.3359 78.4666C78.381 75.4922 81.9574 74.2185 86.0614 74.2185Z" fill="#50B748"/>
</svg>
