<svg width="107" height="104" viewBox="0 0 107 104" fill="none" xmlns="http://www.w3.org/2000/svg">
<path d="M53.722 0.427002C24.6057 0.427002 0.961426 23.5225 0.961426 51.963C0.961426 80.4035 24.6057 103.499 53.722 103.499C82.8383 103.499 106.483 80.4035 106.483 51.963C106.483 23.5225 82.8383 0.427002 53.722 0.427002ZM53.722 4.10814C80.8033 4.10814 102.714 25.5103 102.714 51.963C102.714 78.4157 80.8033 99.8178 53.722 99.8178C26.6408 99.8178 4.73004 78.4157 4.73004 51.963C4.73004 25.5103 26.6408 4.10814 53.722 4.10814ZM49.3957 18.9431C48.95 18.9342 48.5061 19.0015 48.0842 19.1419C47.2129 19.4148 46.4861 20.011 46.0604 20.8021C43.9161 24.2219 43.5053 28.4331 44.7565 32.5082C46.0491 36.7157 49.0791 39.6459 52.3465 41.6374L52.4219 41.6816L52.4972 41.7257C53.4394 42.1822 54.3891 42.1343 55.2106 41.8693C55.6567 41.736 56.0707 41.5164 56.428 41.2236C56.7854 40.9308 57.0789 40.5707 57.2909 40.1649C58.9679 36.8887 59.8385 32.7217 58.5421 28.5031C57.2495 24.2918 54.212 21.3653 50.9483 19.3738L50.873 19.3297L50.7938 19.2855C50.3596 19.0708 49.8821 18.9526 49.3957 18.9395V18.9431ZM49.2525 22.7421C51.8603 24.406 54.0009 26.5373 54.928 29.5596C55.8626 32.6002 55.2596 35.6776 54.0084 38.2471C51.4194 36.5869 49.2864 34.4592 48.3631 31.4517C47.3795 28.2417 47.7337 25.1827 49.2525 22.7421ZM68.0428 37.8642C64.0933 37.8642 59.9327 39.5097 56.914 42.4583C55.6629 43.6804 54.7245 45.0204 53.9896 46.4265C53.2754 45.104 52.3662 43.891 51.2913 42.8264C48.2726 39.8778 44.1121 38.236 40.1588 38.236C39.1789 38.236 38.1614 38.5452 37.3474 39.252C36.5371 39.9588 36.0095 41.0926 36.0095 42.2853C36.0095 46.1431 37.7582 49.9052 40.7128 52.7912C42.8835 54.9116 45.4989 56.4356 48.4497 57.0835V59.686C44.9525 56.8515 40.7618 55.5374 36.3902 55.5374C35.4103 55.5374 34.4003 55.8834 33.6918 56.5791C32.9945 57.2878 32.6101 58.2357 32.6216 59.2185C32.6216 63.7095 34.2797 68.5981 38.071 72.2939C40.8622 75.0714 44.5073 76.8801 48.4497 77.4438V79.4648C48.4497 80.9741 48.9962 82.4171 50.0363 83.4331C51.0765 84.4491 52.55 84.9865 54.1027 84.9865C55.6478 84.9865 57.1251 84.4491 58.1652 83.4331C59.2054 82.4171 59.7556 80.9777 59.7556 79.4648V77.3076C63.2604 76.645 66.5391 75.0621 69.3731 72.2939C73.1605 68.5981 74.83 63.7132 74.83 59.2185C74.83 58.2577 74.472 57.2712 73.7598 56.5791C73.0346 55.9002 72.0658 55.5262 71.0614 55.5374C66.9951 55.5374 63.0946 56.6896 59.7556 59.1228V57.0835C62.7064 56.4319 65.3181 54.9116 67.4888 52.7912C70.4471 49.9015 72.192 46.0916 72.192 41.9171C72.192 40.7539 71.6531 39.7968 70.9333 39.0937C70.5597 38.711 70.1115 38.4051 69.6151 38.1939C69.1187 37.9828 68.5841 37.8707 68.0428 37.8642ZM68.0428 41.5454C67.9787 41.5454 68.1407 41.5711 68.2689 41.6926C68.397 41.8214 68.4234 41.9797 68.4234 41.9171C68.4234 45.1087 67.1458 47.9174 64.8244 50.1887C63.2566 51.72 61.5645 52.7802 59.7179 53.3361C59.635 51.9593 59.1187 50.6599 58.1652 49.7285C57.8125 49.396 57.4127 49.1146 56.9781 48.8929C57.5823 47.4629 58.4655 46.1614 59.5785 45.0608C61.8359 42.8558 65.2088 41.5454 68.0428 41.5454ZM40.1588 41.9171C42.9928 41.9171 46.3657 43.224 48.6231 45.429C49.7198 46.4965 50.4923 47.6671 51.0991 48.9592C50.7147 49.1764 50.3529 49.4193 50.0363 49.7285C49.0829 50.6599 48.5666 51.9593 48.4837 53.3361C46.637 52.7802 44.9412 51.7163 43.3772 50.1887C41.0557 47.9211 39.7782 45.0535 39.7782 42.2853C39.7782 42.0092 39.8158 42.0349 39.8535 42.0055C39.944 41.9471 40.0503 41.9163 40.1588 41.9171ZM54.1027 51.8562C54.8112 51.8562 55.2219 52.0587 55.497 52.3311C55.7797 52.6035 55.987 53.0011 55.987 53.6931V79.4611C55.987 80.1605 55.7797 80.5581 55.497 80.8305C55.2219 81.1029 54.8112 81.3054 54.1027 81.3054C53.3866 81.3054 52.9834 81.1029 52.7045 80.8268C52.4256 80.5581 52.2146 80.1605 52.2146 79.4648V53.6968C52.2146 53.3471 52.2711 53.0747 52.3578 52.8538C52.4339 52.6574 52.5521 52.4792 52.7045 52.3311C52.7912 52.2428 52.9269 52.1839 53.0474 52.1139L54.1027 51.8562ZM36.3902 59.2185C40.498 59.2185 44.0706 60.4922 47.1156 63.4666L48.2462 64.5672C48.3097 64.6296 48.3778 64.6874 48.4497 64.7402V73.7222C45.6233 73.2105 43.1021 72.0068 40.7354 69.6914C37.7356 66.7649 36.3902 62.8187 36.3902 59.2185ZM71.0614 59.2185C71.0614 62.8187 69.7047 66.7649 66.7087 69.6914C64.5493 71.8007 62.2768 72.997 59.7556 73.5823V64.0261L60.3359 63.4666C63.381 60.4922 66.9574 59.2185 71.0614 59.2185Z" fill="#50B748"/>
</svg>
