<svg width="52" height="49" viewBox="0 0 52 49" fill="none" xmlns="http://www.w3.org/2000/svg">
<path d="M18 20.75H6C3.79 20.75 2 19.0719 2 17V5.75C2 3.67812 3.79 2 6 2H18C20.21 2 22 3.67812 22 5.75V17C22 19.0719 20.21 20.75 18 20.75ZM46 20.75H34C31.79 20.75 30 19.0719 30 17V5.75C30 3.67812 31.79 2 34 2H46C48.21 2 50 3.67812 50 5.75V17C50 19.0719 48.21 20.75 46 20.75ZM18 47H6C3.79 47 2 45.3219 2 43.25V32C2 29.9281 3.79 28.25 6 28.25H18C20.21 28.25 22 29.9281 22 32V43.25C22 45.3219 20.21 47 18 47ZM46 47H34C31.79 47 30 45.3219 30 43.25V32C30 29.9281 31.79 28.25 34 28.25H46C48.21 28.25 50 29.9281 50 32V43.25C50 45.3219 48.21 47 46 47Z" stroke="#686868" stroke-width="3" stroke-miterlimit="10" stroke-linecap="round" stroke-linejoin="round"/>
</svg>
