<svg width="14" height="21" viewBox="0 0 14 21" fill="none" xmlns="http://www.w3.org/2000/svg">
<path fill-rule="evenodd" clip-rule="evenodd" d="M7.33342 20.2222C9.64451 20.2222 11.79 19.0704 13.004 17.1793C14.219 15.2873 14.3297 12.926 13.2965 10.9362C10.8615 6.24974 8.2416 1.20734 8.2416 1.20734C8.06992 0.87587 7.71843 0.666626 7.33342 0.666626C6.9484 0.666626 6.59691 0.87587 6.42523 1.20734C6.42523 1.20734 3.80531 6.24974 1.37028 10.9362C0.337149 12.926 0.447878 15.2873 1.66285 17.1793C2.87681 19.0704 5.02232 20.2222 7.33342 20.2222ZM7.33342 3.83071L3.18767 11.8113C2.46945 13.1939 2.54666 14.8356 3.39084 16.1507C4.23503 17.4658 5.72632 18.2666 7.33342 18.2666C8.94051 18.2666 10.4318 17.4658 11.276 16.1507C12.1202 14.8356 12.1974 13.1939 11.4792 11.8113L7.33342 3.83071ZM7.33342 16.3111C8.33811 16.3111 9.27169 15.8104 9.79994 14.9872C10.3282 14.1648 10.3759 13.1372 9.92692 12.2728C9.676 11.7898 9.06547 11.5943 8.56363 11.8348C8.06281 12.0763 7.85862 12.664 8.10954 13.147C8.24363 13.4061 8.22941 13.7131 8.07195 13.9595C7.91347 14.2059 7.63411 14.3555 7.33342 14.3555C6.77266 14.3555 6.31755 14.7936 6.31755 15.3333C6.31755 15.873 6.77266 16.3111 7.33342 16.3111Z" fill="#686868"/>
</svg>
