<svg width="50" height="39" viewBox="0 0 50 39" fill="none" xmlns="http://www.w3.org/2000/svg">
<path d="M2.77778 6.34921C4.3119 6.34921 5.55556 4.92789 5.55556 3.1746C5.55556 1.42132 4.3119 0 2.77778 0C1.24365 0 0 1.42132 0 3.1746C0 4.92789 1.24365 6.34921 2.77778 6.34921Z" fill="#686868"/>
<path d="M2.77778 22.2223C4.3119 22.2223 5.55556 20.801 5.55556 19.0477C5.55556 17.2944 4.3119 15.8731 2.77778 15.8731C1.24365 15.8731 0 17.2944 0 19.0477C0 20.801 1.24365 22.2223 2.77778 22.2223Z" fill="#686868"/>
<path d="M2.77778 38.0952C4.3119 38.0952 5.55556 36.6739 5.55556 34.9206C5.55556 33.1673 4.3119 31.746 2.77778 31.746C1.24365 31.746 0 33.1673 0 34.9206C0 36.6739 1.24365 38.0952 2.77778 38.0952Z" fill="#686868"/>
<path d="M47.3884 15.8731H13.7218C12.2797 15.8731 11.1107 17.2092 11.1107 18.8572V19.2382C11.1107 20.8863 12.2797 22.2223 13.7218 22.2223H47.3884C48.8305 22.2223 49.9995 20.8863 49.9995 19.2382V18.8572C49.9995 17.2092 48.8305 15.8731 47.3884 15.8731Z" fill="#686868"/>
<path d="M47.3884 31.746H13.7218C12.2797 31.746 11.1107 33.082 11.1107 34.7301V35.1111C11.1107 36.7592 12.2797 38.0952 13.7218 38.0952H47.3884C48.8305 38.0952 49.9995 36.7592 49.9995 35.1111V34.7301C49.9995 33.082 48.8305 31.746 47.3884 31.746Z" fill="#686868"/>
<path d="M47.3884 0H13.7218C12.2797 0 11.1107 1.33604 11.1107 2.98413V3.36508C11.1107 5.01317 12.2797 6.34921 13.7218 6.34921H47.3884C48.8305 6.34921 49.9995 5.01317 49.9995 3.36508V2.98413C49.9995 1.33604 48.8305 0 47.3884 0Z" fill="#686868"/>
</svg>
