<svg width="14" height="25" viewBox="0 0 14 25" fill="none" xmlns="http://www.w3.org/2000/svg">
<path d="M7.7603 15.8282V8.31312C7.7603 8.01915 7.64352 7.73722 7.43565 7.52935C7.22778 7.32148 6.94585 7.20471 6.65188 7.20471C6.35791 7.20471 6.07598 7.32148 5.86811 7.52935C5.66024 7.73722 5.54347 8.01915 5.54347 8.31312V15.8282C5.20842 16.0216 4.92982 16.2994 4.73537 16.6338C4.54092 16.9683 4.43738 17.3478 4.43505 17.7347C4.43505 18.3226 4.66861 18.8865 5.08434 19.3022C5.50008 19.7179 6.06394 19.9515 6.65188 19.9515C7.23982 19.9515 7.80368 19.7179 8.21942 19.3022C8.63516 18.8865 8.86871 18.3226 8.86871 17.7347C8.86638 17.3478 8.76284 16.9683 8.56839 16.6338C8.37394 16.2994 8.09535 16.0216 7.7603 15.8282ZM11.6398 13.301V4.98787C11.6398 3.66501 11.1142 2.39632 10.1788 1.46091C9.24343 0.525506 7.97475 0 6.65188 0C5.32902 0 4.06033 0.525506 3.12492 1.46091C2.18951 2.39632 1.66401 3.66501 1.66401 4.98787V13.301C0.897918 14.1691 0.371736 15.2222 0.137511 16.356C-0.0967149 17.4899 -0.0308681 18.6653 0.328538 19.7659C0.687943 20.8665 1.32845 21.8542 2.18671 22.6313C3.04497 23.4084 4.09124 23.948 5.22202 24.1967C5.69176 24.3038 6.17045 24.3669 6.65188 24.3852C7.93834 24.3911 9.19892 24.0239 10.2809 23.3279C11.3628 22.6319 12.2196 21.637 12.7476 20.4639C13.2755 19.2907 13.4518 17.9896 13.2552 16.7183C13.0586 15.4469 12.4974 14.2599 11.6398 13.301ZM9.42292 21.1375C8.54101 21.9195 7.38459 22.3191 6.20805 22.2484C5.03152 22.1777 3.93125 21.6425 3.14929 20.7606C2.36733 19.8787 1.96773 18.7223 2.0384 17.5458C2.10908 16.3692 2.64424 15.269 3.52615 14.487C3.63088 14.3843 3.7142 14.2619 3.77128 14.1268C3.82836 13.9917 3.85806 13.8467 3.85867 13.7V4.98787C3.85867 4.25295 4.15062 3.54812 4.67029 3.02845C5.18996 2.50878 5.89479 2.21683 6.62971 2.21683C7.36464 2.21683 8.06946 2.50878 8.58913 3.02845C9.10881 3.54812 9.40075 4.25295 9.40075 4.98787V13.7887C9.40136 13.9353 9.43107 14.0804 9.48815 14.2155C9.54523 14.3506 9.62855 14.473 9.73328 14.5757C10.1863 15.0134 10.5409 15.5426 10.7734 16.128C11.0059 16.7135 11.111 17.3418 11.0816 17.9711C11.0523 18.6004 10.8892 19.2161 10.6031 19.7774C10.3171 20.3387 9.91478 20.8326 9.42292 21.2262V21.1375Z" fill="#686868"/>
</svg>
