<svg width="90" height="90" viewBox="0 0 90 90" fill="none" xmlns="http://www.w3.org/2000/svg">
<g clip-path="url(#clip0_159_2)">
<path d="M45 0C20.1664 0 0 20.1664 0 45C0 69.8336 20.1664 90 45 90C69.8336 90 90 69.8336 90 45C90 20.1664 69.8336 0 45 0ZM45 3.21429C68.0979 3.21429 86.7857 21.9021 86.7857 45C86.7857 68.0979 68.0979 86.7857 45 86.7857C21.9021 86.7857 3.21429 68.0979 3.21429 45C3.21429 21.9021 21.9021 3.21429 45 3.21429ZM41.31 16.1679C40.9299 16.16 40.5513 16.2188 40.1914 16.3414C39.4483 16.5797 38.8284 17.1003 38.4654 17.7911C36.6364 20.7771 36.2861 24.4543 37.3532 28.0125C38.4557 31.6864 41.04 34.245 43.8268 35.9839L43.8911 36.0225L43.9554 36.0611C44.7589 36.4596 45.5689 36.4179 46.2696 36.1864C46.6501 36.07 47.0032 35.8783 47.308 35.6226C47.6128 35.3669 47.8631 35.0526 48.0439 34.6982C49.4743 31.8375 50.2168 28.1989 49.1111 24.5154C48.0086 20.8382 45.4179 18.2829 42.6343 16.5439L42.57 16.5054L42.5025 16.4668C42.1322 16.2793 41.7249 16.1761 41.31 16.1646V16.1679ZM41.1879 19.485C43.4121 20.9379 45.2379 22.7989 46.0286 25.4379C46.8257 28.0929 46.3114 30.78 45.2443 33.0236C43.0361 31.5739 41.2168 29.7161 40.4293 27.09C39.5904 24.2871 39.8925 21.6161 41.1879 19.485ZM57.2143 32.6893C53.8457 32.6893 50.2971 34.1261 47.7225 36.7007C46.6554 37.7679 45.855 38.9379 45.2282 40.1657C44.6191 39.0109 43.8436 37.9517 42.9268 37.0221C40.3521 34.4475 36.8036 33.0139 33.4318 33.0139C32.5961 33.0139 31.7282 33.2839 31.0339 33.9011C30.3429 34.5182 29.8929 35.5082 29.8929 36.5496C29.8929 39.9182 31.3843 43.2032 33.9043 45.7232C35.7557 47.5746 37.9864 48.9054 40.5032 49.4711V51.7436C37.5204 49.2686 33.9461 48.1211 30.2175 48.1211C29.3818 48.1211 28.5204 48.4232 27.9161 49.0307C27.3213 49.6495 26.9935 50.4771 27.0032 51.3354C27.0032 55.2568 28.4175 59.5254 31.6511 62.7525C34.0317 65.1777 37.1407 66.757 40.5032 67.2493V69.0139C40.5032 70.3318 40.9693 71.5918 41.8564 72.4789C42.7436 73.3661 44.0004 73.8354 45.3246 73.8354C46.6425 73.8354 47.9025 73.3661 48.7896 72.4789C49.6768 71.5918 50.1461 70.335 50.1461 69.0139V67.1304C53.1354 66.5518 55.9318 65.1696 58.3489 62.7525C61.5793 59.5254 63.0032 55.26 63.0032 51.3354C63.0032 50.4964 62.6979 49.635 62.0904 49.0307C61.4719 48.4379 60.6456 48.1113 59.7889 48.1211C56.3207 48.1211 52.9939 49.1271 50.1461 51.2518V49.4711C52.6629 48.9021 54.8904 47.5746 56.7418 45.7232C59.265 43.2 60.7532 39.8732 60.7532 36.2282C60.7532 35.2125 60.2936 34.3768 59.6796 33.7629C59.361 33.4287 58.9787 33.1615 58.5553 32.9772C58.132 32.7928 57.676 32.6949 57.2143 32.6893ZM57.2143 35.9036C57.1596 35.9036 57.2979 35.9261 57.4071 36.0321C57.5164 36.1446 57.5389 36.2829 57.5389 36.2282C57.5389 39.015 56.4493 41.4675 54.4693 43.4507C53.1321 44.7879 51.6889 45.7136 50.1139 46.1989C50.0432 44.9968 49.6029 43.8621 48.7896 43.0489C48.4888 42.7585 48.1478 42.5128 47.7771 42.3193C48.2924 41.0706 49.0457 39.9342 49.995 38.9732C51.9204 37.0479 54.7971 35.9036 57.2143 35.9036ZM33.4318 36.2282C35.8489 36.2282 38.7257 37.3693 40.6511 39.2946C41.5864 40.2268 42.2454 41.2489 42.7629 42.3771C42.435 42.5668 42.1264 42.7789 41.8564 43.0489C41.0432 43.8621 40.6029 44.9968 40.5321 46.1989C38.9571 45.7136 37.5107 44.7846 36.1768 43.4507C34.1968 41.4707 33.1071 38.9668 33.1071 36.5496C33.1071 36.3086 33.1393 36.3311 33.1714 36.3054C33.2486 36.2544 33.3393 36.2275 33.4318 36.2282ZM45.3246 44.9068C45.9289 44.9068 46.2793 45.0836 46.5139 45.3214C46.755 45.5593 46.9318 45.9064 46.9318 46.5107V69.0107C46.9318 69.6214 46.755 69.9686 46.5139 70.2064C46.2793 70.4443 45.9289 70.6211 45.3246 70.6211C44.7139 70.6211 44.37 70.4443 44.1321 70.2032C43.8943 69.9686 43.7143 69.6214 43.7143 69.0139V46.5139C43.7143 46.2086 43.7625 45.9707 43.8364 45.7779C43.9013 45.6064 44.0022 45.4507 44.1321 45.3214C44.2061 45.2443 44.3218 45.1929 44.4246 45.1318L45.3246 44.9068ZM30.2175 51.3354C33.7211 51.3354 36.7682 52.4475 39.3654 55.0446L40.3296 56.0057C40.3838 56.0602 40.4418 56.1106 40.5032 56.1568V63.9996C38.0925 63.5529 35.9421 62.5018 33.9236 60.48C31.365 57.9246 30.2175 54.4789 30.2175 51.3354ZM59.7889 51.3354C59.7889 54.4789 58.6318 57.9246 56.0764 60.48C54.2346 62.3218 52.2964 63.3664 50.1461 63.8775V55.5332L50.6411 55.0446C53.2382 52.4475 56.2886 51.3354 59.7889 51.3354Z" fill="white"/>
</g>
<defs>
<clipPath id="clip0_159_2">
<rect width="90" height="90" fill="white"/>
</clipPath>
</defs>
</svg>
