<svg width="37" height="58" viewBox="0 0 37 58" fill="none" xmlns="http://www.w3.org/2000/svg">
<path d="M15.1529 0.167858C14.7727 0.160029 14.3942 0.218772 14.0343 0.341429C13.2911 0.579673 12.6713 1.10026 12.3082 1.79107C10.4793 4.77714 10.1321 8.45429 11.1993 12.0125C12.3018 15.6896 14.8861 18.245 17.6696 19.9839L17.7339 20.0225L17.8014 20.0611C18.605 20.4596 19.4118 20.4211 20.1125 20.1864C20.4935 20.0704 20.8472 19.8788 21.1526 19.6231C21.458 19.3674 21.7088 19.0529 21.89 18.6982C23.3171 15.8375 24.0629 12.2021 22.9571 8.51536C21.8546 4.84143 19.2607 2.28286 16.4771 0.543928L16.4129 0.505358L16.3486 0.466786C15.9773 0.278848 15.5689 0.175652 15.1529 0.164642V0.167858ZM15.0339 3.48822C17.255 4.93464 19.0839 6.79893 19.8746 9.43786C20.6718 12.0961 20.1575 14.78 19.0904 17.0236C16.8789 15.5771 15.0629 13.7161 14.2754 11.09C13.4332 8.28715 13.7354 5.61607 15.0339 3.48822ZM31.0539 16.6893C27.6854 16.6893 24.1368 18.1261 21.5621 20.7007C20.495 21.7679 19.6979 22.9379 19.0711 24.1657C18.4609 23.0107 17.6844 21.9515 16.7664 21.0221C14.1918 18.4475 10.6432 17.0171 7.27465 17.0171C6.43572 17.0171 5.57107 17.2839 4.87679 17.9011C4.1825 18.5182 3.7325 19.5082 3.7325 20.5496C3.7325 23.9182 5.22393 27.2032 7.74393 29.7232C9.59536 31.5746 11.8261 32.9054 14.3429 33.4711V35.7436C11.36 33.2686 7.78572 32.1211 4.05715 32.1211C3.22143 32.1211 2.36322 32.4264 1.75572 33.0307C1.16214 33.65 0.835478 34.4776 0.846075 35.3354C0.846075 39.26 2.26036 43.5254 5.49072 46.7557C7.8718 49.1797 10.9807 50.7579 14.3429 51.2493V53.0139C14.3429 54.335 14.8121 55.5918 15.6993 56.4789C16.5864 57.3661 17.8432 57.8354 19.1643 57.8354C20.4854 57.8354 21.7421 57.3661 22.6293 56.4789C23.5164 55.5918 23.9857 54.335 23.9857 53.0139V51.1304C26.975 50.5518 29.7714 49.1697 32.1918 46.7557C35.4221 43.5254 36.8429 39.26 36.8429 35.3354C36.8429 34.4964 36.5375 33.6382 35.9332 33.0307C35.3139 32.4371 34.4863 32.1105 33.6286 32.1211C30.1636 32.1211 26.8336 33.1271 23.9857 35.2518V33.4711C26.5025 32.9021 28.7332 31.5746 30.5846 29.7232C33.1046 27.2032 34.5961 23.8732 34.5961 20.2314C34.5961 19.2125 34.1364 18.3768 33.5225 17.7629C33.2035 17.4283 32.8207 17.1609 32.3967 16.9766C31.9728 16.7922 31.5162 16.6945 31.0539 16.6893ZM31.0539 19.9036C31.0025 19.9036 31.1407 19.9261 31.2468 20.0354C31.3593 20.1446 31.3818 20.2829 31.3818 20.2282C31.3818 23.015 30.2889 25.4675 28.3121 27.4507C26.975 28.7879 25.5318 29.7136 23.9536 30.1989C23.8861 28.9968 23.4457 27.8621 22.6293 27.0489C22.3294 26.7588 21.9895 26.5131 21.62 26.3193C22.1357 25.0718 22.8889 23.9365 23.8379 22.9764C25.76 21.0479 28.6368 19.9036 31.0539 19.9036ZM7.27465 20.2314C9.69179 20.2314 12.5686 21.3693 14.4939 23.2946C15.4261 24.2268 16.085 25.2489 16.6025 26.3771C16.2746 26.5668 15.9661 26.7789 15.6993 27.0489C14.8829 27.8621 14.4457 28.9968 14.375 30.1989C12.8 29.7168 11.3536 28.7846 10.0164 27.4507C8.03965 25.4707 6.94679 22.9668 6.94679 20.5496C6.94679 20.3086 6.97893 20.3311 7.01107 20.3054C7.08955 20.2549 7.18137 20.2291 7.27465 20.2314ZM19.1675 28.9068C19.7718 28.9068 20.1189 29.0836 20.3568 29.3214C20.5946 29.5593 20.7746 29.9064 20.7746 30.5107V53.0107C20.7746 53.6214 20.5946 53.9686 20.3568 54.2064C20.1189 54.4443 19.7718 54.6211 19.1675 54.6211C18.5568 54.6211 18.2096 54.4443 17.9718 54.2064C17.7339 53.9686 17.5571 53.6214 17.5571 53.0139V30.5139C17.5571 30.2086 17.6021 29.9707 17.6761 29.7779C17.741 29.6064 17.8418 29.4507 17.9718 29.3214C18.0489 29.2443 18.1646 29.1929 18.2675 29.1318L19.1675 28.9068ZM4.06036 35.3354C7.56072 35.3354 10.6079 36.4475 13.2082 39.0446L14.1725 40.0057C14.2256 40.06 14.2826 40.1105 14.3429 40.1568V47.9996C11.9321 47.5529 9.785 46.5018 7.76322 44.4832C5.20786 41.9246 4.06036 38.4821 4.06036 35.3354ZM33.6318 35.3354C33.6318 38.4821 32.4746 41.9246 29.9193 44.4832C28.0775 46.325 26.1361 47.3664 23.9857 47.8775V39.5364L24.4807 39.0446C27.0811 36.4475 30.1314 35.3354 33.6318 35.3354Z" fill="white"/>
</svg>
